<svg xmlns="http://www.w3.org/2000/svg"><symbol id="icon-back" viewBox="0 0 12.8 16.6"><path d="M6.4 3.9h-3l2.3-2.2c.4-.4.4-1 0-1.4-.4-.4-1-.4-1.4 0l-4 3.9c-.4.4-.4 1 0 1.4l3.9 3.9c.4.4 1 .4 1.4 0 .4-.4.4-1 0-1.4L3.3 5.9h3c2.4 0 4.4 2 4.4 4.4 0 2.4-2 4.4-4.4 4.4-.5 0-1 .4-1 1 0 .5.4 1 1 1 3.5 0 6.4-2.8 6.4-6.3.1-3.6-2.8-6.5-6.3-6.5z"/></symbol><symbol id="icon-bus" viewBox="0 0 14.3 17.6"><path class="st0" d="M13.6 2.6c-.2-1-.8-1.4-1.7-1.7C11 .5 8.8 0 7.2 0 5.5 0 3.4.5 2.4.9c-.9.3-1.5.7-1.7 1.7L0 8v7.4h1.2v1.2c0 1.4 2.1 1.4 2.1 0v-1.2h7.8v1.2c0 1.4 2.1 1.4 2.1 0v-1.2h1.2V8l-.8-5.4zM4.2 1.4h5.9c.6 0 .6.9 0 .9H4.2c-.6-.1-.6-.9 0-.9zM2.2 13c-.5 0-1-.4-1-1 0-.5.4-1 1-1 .5 0 1 .4 1 1s-.4 1-1 1zm4.9-4.5H1.8c-.5 0-.6-.4-.6-.7l.5-3.9c.2-.5.3-.8 1-.8h9c.6 0 .8.3.9.8l.5 3.9c0 .4-.1.7-.6.7H7.1zm5 4.5c-.5 0-1-.4-1-1 0-.5.4-1 1-1s1 .4 1 1-.4 1-1 1zM7.1 0h.1-.1z"/></symbol><symbol id="icon-bus_stop" viewBox="0 0 19.4 13.1"><path class="st0" d="M18.8 1.8C18 .4 17 0 15.8 0H3.7C2.5 0 1.5.4.7 1.8c-.7 1-.7 1.9-.7 2 0 .2.1.2.2.2h1.5c.1 0 .2.1.2.2V13c0 .1.1.2.2.2h1.5c.1 0 .2-.1.2-.2V4.1c-.1 0-.1-.1 0-.1h11.7c.1 0 .2.1.2.2V13c0 .1.1.2.2.2h1.5c.1 0 .2-.1.2-.2V4.1c0-.1.1-.2.2-.2h1.5c.1 0 .2 0 .2-.2-.1 0-.1-.9-.7-1.9z"/><path class="st0" d="M15.1 11l-1.2-1.5H5.5L4.3 11v.3h1.1v1.6s0 .1.1.1H6s.1 0 .1-.1v-1.6h1v.9s0 .1.1.1h.2s.1 0 .1-.1v-.9h4.3v.8s0 .1.1.1h.2s.1 0 .1-.1v-.8h1.1v1.6s0 .1.1.1h.6s.1 0 .1-.1v-1.6h1V11z"/></symbol><symbol id="icon-calendar" viewBox="0 0 12 12"><path d="M11.1 1.1H9.4V.6c0-.3-.2-.6-.5-.6-.4 0-.6.3-.6.6v.6H3.7V.6c0-.3-.2-.6-.6-.6s-.5.3-.5.6v.6H.9c-.5-.1-.9.3-.9.8v9.1c0 .5.4.9.9.9h10.3c.5 0 .9-.4.9-.9V2c-.1-.5-.5-.9-1-.9zm-.2 9.8H1.1V5.1h9.7v5.8zm0-6.9H1.1V2.3h1.4v.6c0 .3.3.6.6.6s.6-.3.6-.6v-.6h4.6v.6c0 .3.3.6.6.6s.6-.3.6-.6v-.6h1.4V4z"/><path d="M2 6h2.2v1.7H2zM5 6h2.2v1.7H5zM7.8 6H10v1.7H7.8zM2 8.3h2.2V10H2zM5 8.3h2.2V10H5zM7.8 8.3H10V10H7.8z"/></symbol><symbol id="icon-cart" viewBox="0 0 15.296 13.601"><path d="M13.744 8.729l1.553-7.185H3.262L2.818 0H.503A.518.518 0 0 0 0 .532c0 .294.226.532.503.532H2.07l2.245 7.827-.999 1.46-.266.366c-.047.057-.09.116-.13.179l-.005.006a1.802 1.802 0 0 0-.277.963c0 .956.736 1.734 1.64 1.734.905 0 1.641-.772 1.641-1.729 0-.237-.045-.478-.127-.664h4.674a1.708 1.708 0 0 0-.127.664c0 .956.736 1.73 1.641 1.73s1.641-.778 1.641-1.734c0-.896-.646-1.646-1.471-1.725H4.71l.433-.641 8.601-.771zm-1.765 2.465c.35 0 .633.301.633.67s-.283.67-.633.67-.633-.301-.633-.67.283-.67.633-.67zm-7.067.67c0 .369-.284.67-.633.67-.349 0-.633-.301-.633-.67s.284-.67.633-.67c.349 0 .633.301.633.67z"/></symbol><symbol id="icon-chain" viewBox="0 0 24 24"><path d="M10.9 19c.6.6.6 1.5 0 2.1l-1.2 1.2c-1.1 1.1-2.6 1.6-4 1.6s-2.9-.5-4-1.6-1.7-2.5-1.7-4 .6-2.9 1.7-4l4.5-4.4c2.8-2.8 6-3.2 8.1-1 .6.6.6 1.5 0 2.1-.6.6-1.5.6-2.1 0-1.3-1.3-3 .1-3.9 1l-4.5 4.4c-.5.6-.8 1.3-.8 2s.3 1.4.8 1.9c1.1 1 2.8 1 3.8 0L8.8 19c.6-.5 1.5-.5 2.1 0zM22.3 1.8C20-.5 16.7-.6 14.6 1.5L13.1 3c-.6.6-.6 1.5 0 2.1.6.6 1.5.6 2.1 0l1.5-1.5c1.1-1.1 2.6-.6 3.5.3.5.5.8 1.2.8 1.9s-.3 1.4-.8 1.9l-4.8 4.7c-2.2 2.2-3.2 1.1-3.6.7-.6-.6-1.5-.6-2.1 0-.6.6-.6 1.5 0 2.1 1 1 2.1 1.5 3.3 1.5 1.5 0 3-.7 4.5-2.2l4.8-4.7c1.1-1.1 1.7-2.5 1.7-4s-.6-2.9-1.7-4z"/></symbol><symbol id="icon-clock" viewBox="0 0 16.7 16.7"><path d="M8.4 0C3.7 0 0 3.7 0 8.4c0 4.6 3.7 8.4 8.4 8.4 4.6 0 8.4-3.7 8.4-8.4C16.7 3.7 13 0 8.4 0zm0 14.9c-3.6 0-6.5-2.9-6.5-6.5s2.9-6.5 6.5-6.5 6.5 2.9 6.5 6.5-2.9 6.5-6.5 6.5z"/><path d="M9 3.6H7.7v5l3.1 3.1.9-.9L9 8.1z"/></symbol><symbol id="icon-compare" viewBox="0 0 23.5 16.7"><style/><path class="st0" d="M9.7 2.1c-.5.4-.9.8-1.2 1.3-.2.2-.1.6.1.8.2.1.6.1.8-.2.3-.4.6-.8 1-1.1.2-.2.3-.5.1-.8-.2-.2-.6-.2-.8 0zm1.6 0c.1 0 .2 0 .3-.1.4-.3.9-.5 1.4-.6.3-.1.5-.4.4-.7-.1-.3-.4-.5-.7-.4h-.1c-.6.2-1.1.4-1.6.7-.3.1-.3.5-.2.7.2.3.3.4.5.4zM6.9 8.3c0 .6.1 1.2.2 1.7.1.3.3.4.5.4h.1c.3-.1.5-.3.4-.6-.1-.5-.1-1-.1-1.5 0-.3-.3-.5-.6-.5s-.5.2-.5.5zm.6-1.1c.3 0 .6-.2.6-.4.1-.5.3-1 .5-1.4.1-.3 0-.6-.2-.7-.3-.1-.6 0-.7.2V5c-.3.4-.5 1-.6 1.6-.1.3.1.5.4.6zm14.4-1.8zm0 0c.2.5.4.9.5 1.4.1.3.3.4.5.4h.1c.3-.1.5-.3.4-.6-.1-.6-.3-1.1-.5-1.7-.1-.3-.4-.4-.7-.3-.3.2-.5.6-.3.8zm-7.4-4.3c.5-.1 1-.1 1.5 0h.1c.3 0 .6-.2.6-.5s-.2-.6-.5-.6h-1.8c-.3 0-.5.3-.5.6s.3.5.6.5zm6.1 2.4c.2.2.3.4.5.6.2.2.5.3.7.2.2-.2.3-.5.2-.7-.2-.2-.3-.5-.5-.7l-.6-.6c-.2-.2-.6-.2-.8 0-.2.2-.2.6 0 .8.2 0 .4.2.5.4zm-3.2-2.1s.1 0 0 0c.5.2 1 .4 1.4.6.3.1.6 0 .7-.2.1-.2 0-.6-.2-.7-.5-.3-1.1-.5-1.6-.7-.3-.1-.6 0-.7.3 0 .3.1.6.4.7zm-5.9 13.2l-1.2-.9c-.2-.2-.6-.2-.8 0-.2.2-.2.6 0 .8.4.4.9.7 1.4 1 .3.1.6 0 .7-.2.3-.2.2-.5-.1-.7zm11-3.6c-.3-.1-.6 0-.7.3-.2.5-.5.9-.8 1.3-.2.2-.2.6.1.8.2.2.6.2.8-.1v-.1l.9-1.5c.1-.2 0-.5-.3-.7zm-8.1 4.5l-1.5-.3c-.3-.1-.6 0-.7.3-.1.3 0 .6.3.7.6.2 1.1.3 1.7.4h.1c.3 0 .6-.2.6-.5s-.2-.5-.5-.6zm5.7-1.8c-.1.1-.1.1 0 0-.4.4-.8.6-1.2.9-.3.1-.3.5-.2.7.1.3.5.3.7.2.5-.3 1-.6 1.4-1l-.4-.4.4.4c.2-.2.2-.5 0-.8-.2-.1-.5-.1-.7 0zM23 7.8c-.3 0-.5.2-.5.5 0 .5-.1 1-.2 1.5-.1.3.1.6.4.6h.1c.3 0 .5-.2.5-.4.1-.6.2-1.1.2-1.7 0-.2-.2-.5-.5-.5zm-5.6 7.5c-.5.1-1 .3-1.5.3-.3 0-.5.3-.5.6s.3.5.6.5c.6-.1 1.1-.2 1.7-.3.3-.1.4-.4.3-.7 0-.4-.3-.5-.6-.4zm-9-2.1c.2.2.5.3.7.2.2-.2.3-.5.2-.7-.3-.4-.5-.9-.8-1.3-.1-.4-.4-.5-.7-.4-.2.1-.4.4-.3.7l.9 1.5zm.6 2.4h-.8c-4 0-7.3-3.3-7.2-7.3 0-4 3.3-7.3 7.3-7.2.4 0 .8 0 1.2.1.3.1.6-.1.6-.4.1-.3-.1-.6-.4-.6C5.1-.6.8 2.5.1 7c-.7 4.5 2.4 8.8 6.9 9.6.4.1.8.1 1.2.1h.9c.3 0 .5-.3.5-.6-.1-.4-.3-.6-.6-.5zm4.5-12.3c2.8 2.9 2.7 7.5-.3 10.3-.2.2-.2.5 0 .8.2.2.5.2.8 0 3.3-3.2 3.5-8.4.3-11.8-.2-.2-.5-.2-.8 0-.2.2-.2.5 0 .7zm-2.8 3.1c0-.1 0-.1 0 0l1.9-1.9c.2-.2.2-.6-.1-.8-.2-.2-.5-.2-.7 0L10 5.5c-.2.2-.2.6-.1.8.2.2.6.3.8.1zm3 3.6c0-.1 0-.1 0 0-.2-.2-.6-.2-.8 0L11 11.9c-.2.2-.3.5-.1.8.2.2.5.3.8.1l.1-.1 1.9-1.9c.2-.3.2-.6 0-.8zm-4 0s0 .1 0 0c.2.2.6.2.8 0l3.4-3.4c.2-.2.2-.6 0-.8-.2-.2-.6-.2-.8 0L9.7 9.3c-.2.2-.2.5 0 .7z"/></symbol><symbol id="icon-dev" viewBox="0 0 132 151.9"><path class="st0" d="M132 88.6V63.3l-.6.3.6-.3-.6-.3.6.3V38l-21.9-12.7-21.9-12.6L66.3 0l-.3.2-.3-.2L0 37.9v75.9l65.7 37.9.1-.1.4.2v-.5.5l21.9-12.7 21.9-12.7 21.9-12.7.1-25.1-.6.4.6-.4zm-21.9-38V76l-22-12.7 22-12.7zM44.3 114l-21.9-12.7V76l21.9 12.7V114zm21.9-12.7L44.3 88.6 22.4 76V50.6l21.9 12.7L66.2 76l21.9-12.7L110 76 88.1 88.6l-21.9 12.7zm43.9 0L88.2 114V88.6L110.1 76v25.3z"/></symbol><symbol id="icon-download" viewBox="0 0 77.7 77.7"><path d="M0 60h77.7v17.7H0zM29.9 0v36.1H13.8l25 23.9 25-23.9H47.7V0z"/></symbol><symbol id="icon-email" viewBox="0 0 17 13"><style/><path class="st0" d="M8.5 7.3C9.5 7 13.4 4.5 17 2v-.8c0-.7-.6-1.2-1.3-1.2H1.3C.6 0 0 .5 0 1.2v.6C3.5 4.4 7.6 7 8.5 7.3z"/><path class="st0" d="M8.5 8.9c-.4 0-1.2 0-5.9-3.2C1.7 5.1.8 4.4 0 3.9v7.9c0 .7.6 1.2 1.3 1.2h14.4c.7 0 1.3-.5 1.3-1.2V4.1c-3.6 2.4-7.3 4.8-8.5 4.8z"/></symbol><symbol id="icon-eye" viewBox="0 0 18 10"><path d="M9 1c3.4 0 6.4 2.7 7.6 4-1.2 1.3-4.2 4-7.6 4-3.4 0-6.4-2.7-7.7-4C2.6 3.7 5.6 1 9 1m0-1C4 0 0 5 0 5s4 5 9 5 9-5 9-5-4.1-5-9-5z"/><path d="M9 3c1.1 0 2 .9 2 2s-.9 2-2 2-2-.9-2-2 .9-2 2-2m0-1C7.3 2 6 3.4 6 5s1.4 3 3 3 3-1.4 3-3c0-1.7-1.3-3-3-3z"/></symbol><symbol id="icon-fb" viewBox="0 0 8.6 18.3"><path d="M1.9 18.3h3.8v-8.1h2.5l.4-3.5H5.7V4.5c0-.7.4-1 1.1-1h1.8V0H5.3C3.7 0 1.9 1.2 1.9 3.5v3.2H0v3.5h1.9v8.1z"/></symbol><symbol id="icon-gp" viewBox="0 0 25 16"><style>.st0{fill-rule:evenodd;clip-rule:evenodd}</style><path class="st0" d="M15.7 6.3H7.8v3.3h4.5c-.7 1.8-2.4 3-4.4 3-2.6 0-4.7-2.1-4.7-4.7s2.1-4.7 4.7-4.7c1.1 0 2.2.4 3 1.1L13.2 2C11.9.8 10 0 7.9 0 3.5 0 0 3.6 0 8s3.5 8 7.9 8 7.9-3.6 7.9-8c.1-.6 0-1.1-.1-1.7zm6.5.3V3.8h-2v2.8h-2.8v2h2.8v2.8h2V8.6H25v-2h-2.8z"/></symbol><symbol id="icon-inst" viewBox="0 0 15.4 15.4"><style>.st0{fill-rule:evenodd;clip-rule:evenodd}</style><path class="st0" d="M2 0h11.4c1.1 0 2 .9 2 2v11.4c0 1.1-.9 2-2 2H2c-1.1 0-2-.9-2-2V2C0 .9.9 0 2 0zm9.2 1.7c-.4 0-.7.3-.7.7v1.7c0 .4.3.7.7.7h1.7c.4 0 .7-.3.7-.7V2.4c0-.4-.3-.7-.7-.7h-1.7zm2.4 4.8h-1.4c.1.4.2.9.2 1.3 0 2.6-2.1 4.6-4.8 4.6s-4.8-2.1-4.8-4.6c0-.5.1-.9.2-1.3H1.7V13c0 .3.3.6.6.6H13c.3 0 .6-.3.6-.6V6.5zM7.7 4.7C6 4.7 4.6 6 4.6 7.6c0 1.7 1.4 3 3.1 3 1.7 0 3.1-1.3 3.1-3 0-1.6-1.4-2.9-3.1-2.9z"/></symbol><symbol id="icon-jersey" viewBox="0 0 20.926 17.873"><path d="M13.825.074a4.655 4.655 0 0 1-3.296 1.362A4.617 4.617 0 0 1 7.233.074a.29.29 0 0 0-.264-.066L.201 1.941a.295.295 0 0 0-.197.33L1.036 6.82c.044.154.176.242.33.198l2.988-.681.109 11.273c0 .153.133.264.286.264h11.448c.154 0 .286-.132.286-.264l.088-11.273 2.988.681c.153.044.308-.066.329-.198l1.033-4.549c.022-.153-.044-.286-.197-.33L14.087.008a.286.286 0 0 0-.262.066z"/></symbol><symbol id="icon-map" viewBox="0 0 9.4 14"><path class="st0" d="M4.7 0C2.1 0 0 2.2 0 4.8c0 .7.2 1.3.5 2.1.3.7 4.2 7.1 4.2 7.1s4-6.5 4.2-7.1c.3-.7.5-1.4.5-2.1C9.4 2.1 7.3 0 4.7 0zm.1 6.8c-1.2 0-2.2-1-2.2-2.2 0-1.2 1-2.2 2.2-2.2C6 2.4 7 3.4 7 4.6c-.1 1.2-1.1 2.2-2.2 2.2z"/></symbol><symbol id="icon-map2" viewBox="0 0 13.7 20.4"><path class="st0" d="M6.8 2c1.3 0 2.5.5 3.4 1.4.9.9 1.4 2.2 1.4 3.5 0 .7-.2 1.4-.5 2.3-.2.5-2.1 3.8-4.3 7.3-2.1-3.5-4-6.7-4.3-7.3-.4-1-.5-1.6-.5-2.3C2 4.2 4.2 2 6.8 2m0-2C3.1 0 0 3.2 0 6.9c0 1.1.2 2 .7 3 .4 1.1 6.2 10.4 6.2 10.4S12.6 11 13 10c.4-1 .7-2 .7-3.1 0-3.8-3.1-6.9-6.9-6.9z"/><circle class="st0" cx="7" cy="6.8" r="2"/></symbol><symbol id="icon-metro" viewBox="0 0 17.9 12.8"><path class="st0" d="M16.9 11.6L12.1 0 9 6.4 5.9 0 1.1 11.6H0v1h6.5v-1H5.1L6.7 8 9 12.8l2.3-4.7 1.6 3.5h-1.4v1h6.4v-1z"/></symbol><symbol id="icon-ok" viewBox="0 0 12.4 19"><style>.st0{fill-rule:evenodd;clip-rule:evenodd}</style><path class="st0" d="M6.2 10c3 0 5.5-2.2 5.5-5S9.3 0 6.2 0C3.2 0 .7 2.2.7 5s2.5 5 5.5 5zm0-7c1.2 0 2.2.9 2.2 2s-1 2.1-2.2 2.1C5 7.1 4 6.1 4 5s1-2 2.2-2zm4.3 10.3c2.1-.7 1.9-1.9 1.9-1.9 0-.6-.4-1.1-1-1.2-.2-.2-.3-.2-.4-.2h-.1-.5c-.5.1-.7.2-.7.2s-1.7 1-3.6 1c-1.9 0-2.8-.7-3.4-1-.2-.1-.4-.1-.8-.2h-.3c-.3 0-.6.1-.8.2-.4.2-.7.5-.7 1v.4c0 .1 0 .1.1.2 0 .1 0 .1.1.1 0 0 0 .1.1.1l.1.1c.8 1.3 3.5 1.7 3.5 1.7L.9 16.6c-.2.2-.3.5-.3.9 0 .8.7 1.5 1.6 1.5.4 0 .7-.1 1-.3l3.1-2.8 3 2.8c.1 0 .1.1.2.1.3.1.5.2.8.2.9 0 1.6-.7 1.6-1.5 0-.3-.1-.6-.3-.9l-3.1-2.8s.2 0 2-.5z"/></symbol><symbol id="icon-phone" viewBox="0 0 15.8 15.4"><style/><path class="st0" d="M.8 0h3.7s.4-.1.7 1.2c.4 1.4.8 2.7.8 2.7s.3.3-.2 1-1.5 1.6-1.5 1.6S5.5 8.7 7 9.8s2.5 1.7 2.5 1.7L11 10s.3-.5 1.1-.3 2.9.6 3 .6.7.1.7.8v3.1s0 1.1-.8 1.2c-.7.1-3.6-.1-6.4-1.5-3.4-1.6-5.5-4.4-6.2-5.4-.6-1-2-4-2.2-5.5S0 1 0 1s0-.8.8-1z"/></symbol><symbol id="icon-photo" viewBox="0 0 22.7 18.1"><path d="M20.4 3.4h-2.7c-.4 0-.8-.3-.9-.6L16.1.7c-.1-.4-.5-.7-.9-.7H7.5c-.4 0-.8.3-.9.6l-.7 2.2c-.1.3-.5.6-.9.6H2.3C1 3.4 0 4.4 0 5.7v10.2c0 1.2 1 2.3 2.3 2.3h18.1c1.2 0 2.3-1 2.3-2.3V5.7c0-1.3-1.1-2.3-2.3-2.3zM11.3 15c-2.5 0-4.6-2.1-4.6-4.6 0-2.5 2.1-4.6 4.6-4.6 2.5 0 4.6 2.1 4.6 4.6 0 2.5-2 4.6-4.6 4.6z"/></symbol><symbol id="icon-place" viewBox="0 0 8 10"><style>.st0{fill:#c1c1c1}</style><path class="st0" d="M7.3 1.6C6.6.6 5.4 0 4 0 2.7 0 1.5.6.8 1.5c-.1.1-.2.3-.3.4-.1.1-.1.2-.2.3-.2.5-.3 1-.3 1.5 0 .2.1.5.2.9 0 .1.1.2.1.2.2.6.7 1.3 1.1 2 .1.1.2.2.2.3.1.1.1.2.2.3C2.8 8.8 4 10 4 10s.7-.8 1.5-1.8l.1-.1c.1-.1.2-.2.3-.4 0-.1.1-.1.1-.1 0-.1.1-.2.2-.3.1 0 .1-.1.1-.1.1-.1.2-.3.3-.4.1-.1.2-.3.3-.4 0-.1 0-.1.1-.2.2-.3.4-.6.5-.9 0-.1.1-.2.1-.3.3-.5.4-.9.4-1.3 0-.8-.3-1.5-.7-2.1zM5.2 4.2l-.1.1c-.3.3-.7.4-1.1.4-.3 0-.7-.1-.9-.3H3c-.1 0-.1-.1-.1-.1-.1 0-.1-.1-.2-.1l-.1-.1c-.1-.3-.1-.6-.1-.8V3c0-.1.1-.2.1-.3 0-.1.1-.2.1-.2h.1c.1 0 .1-.1.2-.1l.1-.1c.1 0 .1 0 .1-.1s.1-.2.1-.2h.1c.2-.1.4-.1.6-.1.2 0 .4 0 .5.1h.2c.1 0 .2.1.3.2h.1c.3.3.5.6.5 1 0 .5-.2.8-.4 1z"/></symbol><symbol id="icon-play" viewBox="0 0 16.7 16.7"><style>.st0{fill-rule:evenodd;clip-rule:evenodd}</style><path class="st0" d="M6.9 5.3l4.6 3L7 11.5l-.1-6.2z"/><path d="M8.2 1.8c3.6-.1 6.6 2.8 6.7 6.4.1 3.6-2.8 6.6-6.4 6.7-3.6.1-6.6-2.8-6.7-6.4s2.8-6.6 6.4-6.7m0-1.8C3.6.1-.1 3.9 0 8.5s3.9 8.3 8.5 8.2 8.3-3.9 8.2-8.5S12.8-.1 8.2 0z"/></symbol><symbol id="icon-rss" viewBox="0 0 16 16"><path d="M2.2 11.6c-1.2 0-2.2 1-2.2 2.2C0 15 1 16 2.2 16c1.2 0 2.2-1 2.2-2.2 0-1.2-1-2.2-2.2-2.2zM0 5.4v3.1c4.1 0 7.5 3.4 7.5 7.5h3.1C10.6 10.1 5.9 5.4 0 5.4zM0 0v3.2c7.1 0 12.8 5.7 12.8 12.8H16C16 7.2 8.8 0 0 0z"/></symbol><symbol id="icon-rub" viewBox="0 0 13.8 18"><path class="st0" d="M2.8 1h2v17h-2z"/><path class="st0" d="M8.3 11H0V9h8.3c1.9 0 3.5-1.6 3.5-3.5S10.3 2 8.3 2H2.9V0h5.5c3 0 5.5 2.5 5.5 5.5S11.4 11 8.3 11zM.2 12.7h10v2H.2z"/></symbol><symbol id="icon-search" viewBox="0 0 13.3 13.3"><path d="M0 5.4c0 3 2.4 5.4 5.4 5.4 1.2 0 2.3-.4 3.2-1l3.3 3.3c.3.3.8.3 1.2 0 .3-.3.3-.8 0-1.2L9.8 8.6c.6-.9 1-2 1-3.2 0-3-2.4-5.4-5.4-5.4C2.4 0 0 2.4 0 5.4zm1.7 0c0-2.1 1.7-3.7 3.7-3.7 2.1 0 3.7 1.7 3.7 3.7 0 2.1-1.7 3.7-3.7 3.7-2.1 0-3.7-1.6-3.7-3.7z"/></symbol><symbol id="icon-stadium" viewBox="0 0 26.1 20"><path d="M25.8 4.4c.1-.1.2-.2.2-.4s.1-2.9 0-3l-2.2 1.1c-.2-.1-.4-.1-.5 0-.2.1-.3.2-.3.4V7c-1.7-.5-5.2-.8-7.2-.9-.1 0-.1-.1-.2-.1s-.3 0-.4.1c-1 0-1.8-.1-2.2-.1V4.8l1.8-1.4c.1-.1.2-.2.2-.4s.1-2.9 0-3l-2.2 1.1c-.2-.1-.4-.1-.5 0-.2 0-.3.2-.3.4V6c-.5 0-1.3 0-2.2.1-.2-.1-.3-.1-.4 0-.1 0-.1 0-.2.1-2.5.1-6.6.4-8.2 1.2V5.8l1.8-1.4c.1-.1.2-.2.2-.4s.1-2.9 0-3L.8 2.1C.6 2 .4 2 .3 2.1c-.2.1-.3.2-.3.4v6.1l1 9c0 1.6 4.9 2.1 8 2.4v-3.4c0-.8 1.2-2.6 2-2.6l2.5.1c.8 0 2.5 1.7 2.5 2.5V20c3.1-.2 8-.8 8-2.3l1-9v-.1-.1c0-.5-.4-.8-1-1.1V5.8l1.8-1.4zM1 8.5c.2-.2.9-.5 2-.8v.1l1.4 1.7c-2-.2-3.2-.7-3.4-1zm4.9 1.3c0-.1 0-.1 0 0L4.2 7.6c1.1-.2 3.4-.3 5-.4l.7 2.8c-1.1-.1-3.1-.1-4-.2zm8.1.2H10.9l-.8-2.9h4.6L14 10zm5.1-.2h-3.9-.1l.8-2.9c1.6.1 3.9.2 5 .4l-1.8 2.5c0-.1 0-.1 0 0zM24 8.5l-.1.1s-.1 0-.1.1c0 0-.1 0-.1.1 0 0-.1 0-.1.1 0 0-.1 0-.1.1 0 0-.1 0-.1.1-.1 0-.1 0-.2.1C23.1 9 23 9 23 9c-.1 0-.2.1-.2.1-.1 0-.1 0-.2.1-.1 0-.2.1-.3.1h-.2c-.1 0-.2.1-.3.1h-.2c-.1 0-.2 0-.4.1-.1 0-.2 0-.3.1h-.2l1.4-1.7v-.1c1.1.2 1.8.5 1.9.7z"/></symbol><symbol id="icon-ticket" viewBox="0 0 29 17"><path d="M28.163 6.855A.83.83 0 0 0 29 6.032V3.29a.83.83 0 0 0-.837-.822c-.922 0-1.673-.738-1.673-1.645A.83.83 0 0 0 25.654 0H3.346a.83.83 0 0 0-.836.823c0 .907-.75 1.645-1.673 1.645A.83.83 0 0 0 0 3.29v2.742a.83.83 0 0 0 .837.823c.922 0 1.673.738 1.673 1.645s-.75 1.645-1.673 1.645a.83.83 0 0 0-.837.823v2.742a.83.83 0 0 0 .837.822c.922 0 1.673.738 1.673 1.645a.83.83 0 0 0 .836.823h22.308a.83.83 0 0 0 .836-.823c0-.907.75-1.645 1.673-1.645A.83.83 0 0 0 29 13.71v-2.742a.83.83 0 0 0-.837-.823c-.922 0-1.673-.738-1.673-1.645s.75-1.645 1.673-1.645zm-.836 4.831v1.305a3.33 3.33 0 0 0-2.404 2.364h-1.779v-2.468a.83.83 0 0 0-.836-.822.83.83 0 0 0-.837.822v2.468H7.53v-2.468a.83.83 0 0 0-.837-.822.83.83 0 0 0-.836.822v2.468h-1.78a3.33 3.33 0 0 0-2.403-2.364v-1.305c1.442-.366 2.51-1.656 2.51-3.186s-1.068-2.82-2.51-3.186V4.009a3.33 3.33 0 0 0 2.404-2.364h1.779v2.468a.83.83 0 0 0 .836.823.83.83 0 0 0 .837-.823V1.645h13.94v2.468a.83.83 0 0 0 .837.823.83.83 0 0 0 .836-.823V1.645h1.78a3.33 3.33 0 0 0 2.403 2.364v1.305c-1.442.366-2.51 1.656-2.51 3.186s1.068 2.82 2.51 3.186z"/><path d="M7 7c-.552 0-1 .384-1 .857v2.286c0 .473.448.857 1 .857s1-.384 1-.857V7.857C8 7.384 7.552 7 7 7zm15 0c-.552 0-1 .384-1 .857v2.286c0 .473.448.857 1 .857s1-.384 1-.857V7.857C23 7.384 22.552 7 22 7z"/></symbol><symbol id="icon-time" viewBox="0 0 16.7 16.7"><path d="M8.4 0C3.7 0 0 3.7 0 8.4c0 4.6 3.7 8.4 8.4 8.4 4.6 0 8.4-3.7 8.4-8.4C16.7 3.7 13 0 8.4 0zm0 14.9c-3.6 0-6.5-2.9-6.5-6.5s2.9-6.5 6.5-6.5 6.5 2.9 6.5 6.5-2.9 6.5-6.5 6.5z"/><path d="M9 3.6H7.7v5l3.1 3.1.9-.9L9 8.1z"/></symbol><symbol id="icon-tv" viewBox="0 0 18 19"><path d="M16 6H2v9h14V6zm-2-2l3-3-1-1-3 3-1-2-1 1 1.3 2H0v15h18V4h-4zM3 18H2v-1h1v1zm2 0H4v-1h1v1zm2 0H6v-1h1v1zm10-2H1V5h16v11z"/></symbol><symbol id="icon-tw" viewBox="0 0 19 15"><path d="M9.3 4.6c-.6-2.3 1-4 2.4-4.4 1.4-.4 3.2-.1 4.2 1 0 0 1.6-.4 2.5-.9 0 0-.5 1.5-1.8 2.1 0 0 1 0 2.3-.6 0 0-.8 1.1-2 2 0 9.9-10.3 13.9-17 9.5 0 0 3.2.4 5.7-1.6 0 0-2.8 0-3.7-2.6 0 0 1.2.2 1.8-.1 0 0-3-.6-3.1-3.7 0 0 .5.6 1.8.5 0 0-2.9-1.7-1.2-5.1.1-.1 3.2 4.2 8.1 3.9z"/></symbol><symbol id="icon-user" viewBox="0 0 1152 1067.2"><path d="M576 0C330.33 0 333.2 203.6 333.2 203.6l-1.2 108c-20.07-.26-25.2 18.78-25.2 56.4 0 56.39 36.25 115.12 69.2 145.6 11.17 44.4 32.86 83.4 61.6 113.2-98.52 57.64-217 96.43-294 135.2C65.5 801.26 0 949.33 0 1067.2h1152c0-117.87-65.5-265.94-143.6-305.2-77-38.77-195.48-77.56-294-135.2C743.14 597 764.83 558 776 513.6c33-30.48 69.2-89.21 69.2-145.6 0-37.62-5.13-56.66-25.2-56.4l-1.2-108S821.67 0 576 0z"/></symbol><symbol id="icon-video" viewBox="0 0 11 10"><path d="M.8 10h7.1V4.7H.8V10zm7.3-1.6h.7v-2h-.7v2zm.8-2v2l2.1.8V5.4l-2.1 1zM6.6 0c-1.1 0-2 .9-2.1 2h-.2c-.1-1.1-1-2-2.1-2C1 0 0 1 0 2.3c0 1.2 1 2.2 2.1 2.3h4.4c1.2 0 2.2-1 2.2-2.3S7.8 0 6.6 0z"/></symbol><symbol id="icon-vk" viewBox="0 0 25.7 14.5"><style>.st0{fill-rule:evenodd;clip-rule:evenodd}</style><path class="st0" d="M20.9 14.5h-.1c-1.3-.2-2.2-1.1-3-2-.4-.5-1.1-1.5-1.9-1.4-1.1.2-.6 2-1 2.8-.4.6-2 .5-3.1.4-3.5-.4-5.3-2.2-6.8-4.1C3.4 8.2 2.1 6 .9 3.6.5 2.8 0 1.9 0 1 .6.5 1.5.7 2.4.7c.8 0 2-.2 2.6.1.3.2.7 1.1 1 1.7.6 1.3 1.2 2.3 2 3.4.3.5.8 1.4 1.4 1.2.6-.2.6-1.6.7-2.5 0-1 0-2.3-.3-2.8S9 1.3 8.4 1c.5-.9 1.7-1 3.1-1 1.2 0 2.9-.1 3.4.7.5.8.1 2.2.1 3.3 0 1.2-.2 2.5.6 3 .7-.1 1-.7 1.4-1.2.8-1.1 1.3-2 2-3.4.3-.6.5-1.5 1-1.7.7-.3 1.9-.1 3-.1.9 0 2.4-.2 2.7.4.2.5-.5 1.7-.7 2.1-.8 1.3-1.6 2.1-2.5 3.3-.3.5-1.1 1.2-1 1.9 0 .5.6 1 1 1.4.9.9 1.6 1.5 2.4 2.4.3.4.9 1.1.8 1.6-.1 1.4-3.6.5-4.8.8z"/></symbol><symbol id="icon-washer" viewBox="0 0 12 9"><style>.st0{fill:#231a1a}</style><path class="st0" d="M6 5.9c-2.8 0-5.1-.8-6-2v2.4C0 7.8 2.7 9 6 9s6-1.2 6-2.7V3.9c-.9 1.1-3.2 2-6 2zm0-.5c3.3 0 6-1.2 6-2.7C12 1.2 9.3 0 6 0S0 1.2 0 2.7c0 1.5 2.7 2.7 6 2.7z"/></symbol><symbol id="icon-whistle" viewBox="0 0 16 9"><style>.st0{fill:#231a1a}</style><path class="st0" d="M15.8 0H5C2.2 0 0 2 0 4.5S2.2 9 5 9c2.7 0 5-2 5-4.5 0-.5-.1-1-.3-1.5l5.7-1.3c-.1 0 1-1.7.4-1.7z"/></symbol><symbol id="icon-win" viewBox="0 0 18 16"><path d="M17.3 16h-2.6c-.4 0-.7-.3-.7-.7V6.6c0-.4.3-.7.7-.7h2.6c.4 0 .7.3.7.7v8.7c0 .4-.3.7-.7.7zM0 7.1c0-.9.7-1.6 1.6-1.6h4.5c.4 0 .6-.3.6-.7 0 0-1.4-3.3-1.4-3.8s.2-.7.5-.8S6.9 0 6.9 0c.3 0 .6 0 .7.2l5 5c.3.3.5.7.5 1.2v9.1c0 .4-.3.6-.6.6H4.1c-.7 0-1.1-.5-1.5-1L.3 12c-.1-.1-.3-.5-.3-.9v-4z"/></symbol><symbol id="icon-yt" viewBox="0 0 17.9 17.6"><path d="M14.9 7.7H3c-1.7 0-3 1.1-3 2.5v4.9c0 1.4 1.3 2.5 3 2.5h11.9c1.7 0 3-1.1 3-2.5v-4.9c0-1.4-1.3-2.5-3-2.5zm-9.5 2.7H4.2v5.3H3v-5.3H1.8v-1h3.6v1zm3.3 5.2h-1v-.5c-.2.4-.5.6-.9.6-.6 0-1-.4-1-1.1v-3.7h1V14c0 .3 0 .4.1.5.1.2.2.3.4.3s.3-.1.4-.3c0-.1.1-.3.1-.6v-3h1v4.7h-.1zm3.7-.7c-.2.6-.5.9-1 .9-.4 0-.7-.2-.9-.6v.5h-1V9.4h1v2c.2-.4.5-.5.9-.5.5 0 .8.3 1 .9.1.3.1.8.1 1.6.1.6 0 1.2-.1 1.5zm3.8-1.5h-2v.3c0 .4 0 .6.1.8.1.3.2.5.4.5.3 0 .5-.3.5-.9h.9v.2c0 .5-.1.9-.4 1.2-.2.3-.6.4-1.1.4s-.9-.2-1.1-.5c-.2-.2-.3-.6-.3-1.1v-1.1-1c0-.4.1-.7.3-.9.3-.3.7-.5 1.2-.5s.9.2 1.2.5c.2.3.3.9.3 1.8v.3zm-1.5-1.8c-.2 0-.3.1-.4.2-.1.2-.1.4-.1.7v.2h1v-.2c0-.3 0-.5-.1-.6 0-.2-.2-.3-.4-.3zm-3.6.1c-.3 0-.4.2-.5.7v1.9c.1.4.2.5.5.5.2 0 .4-.2.4-.6v-.9-.9c0-.5-.2-.7-.4-.7zM4.9 6.4H6V3.7L7.5 0H6.3l-.9 2.4L4.5 0H3.3l1.5 3.7v2.7h.1zm4.5.1c.7 0 1.1-.3 1.3-.8.1-.3.2-.9.2-1.7s-.1-1.4-.2-1.7c-.2-.5-.7-.8-1.3-.8-.7 0-1.1.3-1.3.8-.1.3-.2.9-.2 1.7s.1 1.4.2 1.7c.2.6.7.8 1.3.8zm-.5-2.9v-.8c.1-.3.2-.5.5-.5s.4.2.5.5v2.3c-.1.4-.2.5-.5.5S9 5.4 8.9 5V3.6zm3.8 2.9c.4 0 .7-.2.9-.6v.5h1V1.6h-1v3c0 .3 0 .5-.1.6-.1.2-.2.3-.4.3s-.3-.1-.4-.3c0-.1-.1-.3-.1-.5V1.6h-1v3.7c.1.8.4 1.2 1.1 1.2z"/></symbol><symbol id="icon-zoom" viewBox="0 0 15.6 15.6"><path d="M0 6.1h1.7V1.7H6V0H0v6.1zm1.7 3.4H0v6.1h6.1v-1.7H1.7V9.5zm12.2 4.4H9.5v1.7h6.1V9.5h-1.7v4.4zM9.5 0v1.7h4.3V6h1.7V0h-6z"/></symbol>
<symbol id="icon-tg" viewBox="0 0 306 306"><path d="M10.1283 132.111L294.128 22.6106C298.463 21.1182 306.77 21.7462 305.128 31.6106C303.463 41.6181 271.128 199.444 254.128 277.111C253.295 280.111 249.728 285.311 242.128 282.111C238.048 280.392 223.937 269.71 208.491 258.016C195.171 247.932 180.858 237.097 171.128 230.611C168.628 228.944 163.963 226.618 157.128 232.111C155.506 233.414 152.545 235.836 148.889 238.827C139.626 246.404 125.895 257.636 118.128 263.611C115.962 265.277 110.628 266.811 106.628 259.611C102.997 253.075 90.027 208.962 82.3044 181.806C80.9269 176.962 77.3645 173.04 72.6684 171.221L9.1283 146.611C8.92864 146.506 8.72554 146.4 8.51988 146.293C1.8594 142.818 -7.49318 137.938 10.1283 132.111ZM102.343 172.164L117.967 226.414C118.409 227.948 120.381 228.372 121.414 227.155L224.203 106.011C225.631 104.328 223.681 101.913 221.735 102.953L105.28 165.212C102.784 166.546 101.56 169.444 102.343 172.164Z"/></symbol>
<symbol id="icon-rt" viewBox="0 0 25 22">
<path d="M21.8724 5.01568C23.0774 5.01568 24.0543 4.0388 24.0543 2.83377C24.0543 1.62873 23.0774 0.651855 21.8724 0.651855C20.6674 0.651855 19.6905 1.62873 19.6905 2.83377C19.6905 4.0388 20.6674 5.01568 21.8724 5.01568Z"/>
<path d="M15.3888 4.77441H0.0543213V21.8212H4.3224V16.2752H12.5008L16.2322 21.8212H21.0114L16.8966 16.2497C18.1745 16.0452 19.0946 15.5596 19.6568 14.7929C20.2191 14.0262 20.5003 12.7994 20.5003 11.1638V9.88585C20.5003 8.91469 20.398 8.14798 20.2191 7.56014C20.0402 6.97237 19.7335 6.46116 19.299 6.00115C18.839 5.56669 18.3279 5.25999 17.7145 5.05555C17.1011 4.8766 16.3343 4.77441 15.3888 4.77441ZM14.6987 12.5183H4.3224V8.53137H14.6987C15.2865 8.53137 15.6955 8.63356 15.8999 8.8125C16.1043 8.99138 16.2322 9.32365 16.2322 9.80923V11.2404C16.2322 11.7515 16.1043 12.0838 15.8999 12.2627C15.6955 12.4416 15.2865 12.5183 14.6987 12.5183Z"/>
</symbol>
</svg>